#define big_cross_width 64
#define big_cross_height 64
static unsigned char big_cross_bits[] = {
   0x00, 0x00, 0x00, 0x00, 0x00, 0x00, 0x00, 0x00, 0x00, 0x00, 0x00, 0x00,
   0x00, 0x00, 0x00, 0x00, 0x00, 0x00, 0x00, 0x00, 0x00, 0x00, 0x00, 0x00,
   0x18, 0x00, 0x00, 0x00, 0x00, 0x00, 0x00, 0x18, 0x38, 0x00, 0x00, 0x00,
   0x00, 0x00, 0x00, 0x1c, 0x78, 0x00, 0x00, 0x00, 0x00, 0x00, 0x00, 0x1e,
   0xf0, 0x00, 0x00, 0x00, 0x00, 0x00, 0x00, 0x0f, 0xe0, 0x01, 0x00, 0x00,
   0x00, 0x00, 0x80, 0x07, 0xc0, 0x03, 0x00, 0x00, 0x00, 0x00, 0xc0, 0x03,
   0x80, 0x07, 0x00, 0x00, 0x00, 0x00, 0xe0, 0x01, 0x00, 0x0f, 0x00, 0x00,
   0x00, 0x00, 0xf0, 0x00, 0x00, 0x1e, 0x00, 0x00, 0x00, 0x00, 0x78, 0x00,
   0x00, 0x3c, 0x00, 0x00, 0x00, 0x00, 0x3c, 0x00, 0x00, 0x78, 0x00, 0x00,
   0x00, 0x00, 0x1e, 0x00, 0x00, 0xf0, 0x00, 0x00, 0x00, 0x00, 0x0f, 0x00,
   0x00, 0xe0, 0x01, 0x00, 0x00, 0x80, 0x07, 0x00, 0x00, 0xc0, 0x03, 0x00,
   0x00, 0xc0, 0x03, 0x00, 0x00, 0x80, 0x07, 0x00, 0x00, 0xe0, 0x01, 0x00,
   0x00, 0x00, 0x0f, 0x00, 0x00, 0xf0, 0x00, 0x00, 0x00, 0x00, 0x1e, 0x00,
   0x00, 0x78, 0x00, 0x00, 0x00, 0x00, 0x3c, 0x00, 0x00, 0x3c, 0x00, 0x00,
   0x00, 0x00, 0x78, 0x00, 0x00, 0x1e, 0x00, 0x00, 0x00, 0x00, 0xf0, 0x00,
   0x00, 0x0f, 0x00, 0x00, 0x00, 0x00, 0xe0, 0x01, 0x80, 0x07, 0x00, 0x00,
   0x00, 0x00, 0xc0, 0x03, 0xc0, 0x03, 0x00, 0x00, 0x00, 0x00, 0x80, 0x07,
   0xe0, 0x01, 0x00, 0x00, 0x00, 0x00, 0x00, 0x0f, 0xf0, 0x00, 0x00, 0x00,
   0x00, 0x00, 0x00, 0x1e, 0x78, 0x00, 0x00, 0x00, 0x00, 0x00, 0x00, 0x3c,
   0x3c, 0x00, 0x00, 0x00, 0x00, 0x00, 0x00, 0x78, 0x1e, 0x00, 0x00, 0x00,
   0x00, 0x00, 0x00, 0xf0, 0x0f, 0x00, 0x00, 0x00, 0x00, 0x00, 0x00, 0xe0,
   0x07, 0x00, 0x00, 0x00, 0x00, 0x00, 0x00, 0xc0, 0x03, 0x00, 0x00, 0x00,
   0x00, 0x00, 0x00, 0xe0, 0x07, 0x00, 0x00, 0x00, 0x00, 0x00, 0x00, 0xf0,
   0x0f, 0x00, 0x00, 0x00, 0x00, 0x00, 0x00, 0x78, 0x1e, 0x00, 0x00, 0x00,
   0x00, 0x00, 0x00, 0x3c, 0x3c, 0x00, 0x00, 0x00, 0x00, 0x00, 0x00, 0x1e,
   0x78, 0x00, 0x00, 0x00, 0x00, 0x00, 0x00, 0x0f, 0xf0, 0x00, 0x00, 0x00,
   0x00, 0x00, 0x80, 0x07, 0xe0, 0x01, 0x00, 0x00, 0x00, 0x00, 0xc0, 0x03,
   0xc0, 0x03, 0x00, 0x00, 0x00, 0x00, 0xe0, 0x01, 0x80, 0x07, 0x00, 0x00,
   0x00, 0x00, 0xf0, 0x00, 0x00, 0x0f, 0x00, 0x00, 0x00, 0x00, 0x78, 0x00,
   0x00, 0x1e, 0x00, 0x00, 0x00, 0x00, 0x3c, 0x00, 0x00, 0x3c, 0x00, 0x00,
   0x00, 0x00, 0x1e, 0x00, 0x00, 0x78, 0x00, 0x00, 0x00, 0x00, 0x0f, 0x00,
   0x00, 0xf0, 0x00, 0x00, 0x00, 0x80, 0x07, 0x00, 0x00, 0xe0, 0x01, 0x00,
   0x00, 0xc0, 0x03, 0x00, 0x00, 0xc0, 0x03, 0x00, 0x00, 0xe0, 0x01, 0x00,
   0x00, 0x80, 0x07, 0x00, 0x00, 0xf0, 0x00, 0x00, 0x00, 0x00, 0x0f, 0x00,
   0x00, 0x78, 0x00, 0x00, 0x00, 0x00, 0x1e, 0x00, 0x00, 0x3c, 0x00, 0x00,
   0x00, 0x00, 0x3c, 0x00, 0x00, 0x1e, 0x00, 0x00, 0x00, 0x00, 0x78, 0x00,
   0x00, 0x0f, 0x00, 0x00, 0x00, 0x00, 0xf0, 0x00, 0x80, 0x07, 0x00, 0x00,
   0x00, 0x00, 0xe0, 0x01, 0xc0, 0x03, 0x00, 0x00, 0x00, 0x00, 0xc0, 0x03,
   0xe0, 0x01, 0x00, 0x00, 0x00, 0x00, 0x80, 0x07, 0xf0, 0x00, 0x00, 0x00,
   0x00, 0x00, 0x00, 0x0f, 0x78, 0x00, 0x00, 0x00, 0x00, 0x00, 0x00, 0x1e,
   0x38, 0x00, 0x00, 0x00, 0x00, 0x00, 0x00, 0x1c, 0x00, 0x00, 0x00, 0x00,
   0x00, 0x00, 0x00, 0x00, 0x00, 0x00, 0x00, 0x00, 0x00, 0x00, 0x00, 0x00,
   0x00, 0x00, 0x00, 0x00, 0x00, 0x00, 0x00, 0x00 };
