#define circle_width 20
#define circle_height 20
static unsigned char circle_bits[] = {
   0x00, 0x00, 0x00, 0x00, 0x00, 0x00, 0x80, 0x1f, 0x00, 0xe0, 0x70, 0x00,
   0x30, 0xc0, 0x00, 0x18, 0x80, 0x01, 0x08, 0x00, 0x01, 0x0c, 0x00, 0x03,
   0x04, 0x00, 0x02, 0x04, 0x00, 0x02, 0x04, 0x00, 0x02, 0x04, 0x00, 0x02,
   0x0c, 0x00, 0x03, 0x08, 0x00, 0x01, 0x18, 0x80, 0x01, 0x30, 0xc0, 0x00,
   0xe0, 0x70, 0x00, 0x80, 0x1f, 0x00, 0x00, 0x00, 0x00, 0x00, 0x00, 0x00 };
