#define cross_width 20
#define cross_height 20
static unsigned char cross_bits[] = {
   0x00, 0x00, 0x00, 0x00, 0x00, 0x00, 0x04, 0x00, 0x02, 0x0c, 0x00, 0x03,
   0x18, 0x80, 0x01, 0x30, 0xc0, 0x00, 0x60, 0x60, 0x00, 0xc0, 0x30, 0x00,
   0x80, 0x19, 0x00, 0x00, 0x0f, 0x00, 0x00, 0x06, 0x00, 0x00, 0x0f, 0x00,
   0x80, 0x19, 0x00, 0xc0, 0x30, 0x00, 0x60, 0x60, 0x00, 0x30, 0xc0, 0x00,
   0x18, 0x80, 0x01, 0x0c, 0x00, 0x03, 0x00, 0x00, 0x00, 0x00, 0x00, 0x00 };
