#define draw_width 64
#define draw_height 64
static unsigned char draw_bits[] = {
   0x00, 0x00, 0x00, 0x00, 0x00, 0x00, 0x00, 0x00, 0x00, 0x00, 0x00, 0x00,
   0x00, 0x00, 0x00, 0x00, 0x00, 0x00, 0x00, 0x00, 0x00, 0x00, 0x00, 0x00,
   0x00, 0x00, 0x00, 0x00, 0x00, 0x00, 0x00, 0x00, 0x00, 0x00, 0x00, 0x00,
   0x00, 0x00, 0x00, 0x00, 0x00, 0x00, 0x00, 0x00, 0x00, 0x00, 0x00, 0x00,
   0x00, 0x00, 0x00, 0x00, 0x00, 0x00, 0x00, 0x00, 0x00, 0x00, 0x00, 0x00,
   0x00, 0x00, 0x00, 0x00, 0x00, 0x00, 0x00, 0x00, 0x00, 0x00, 0x00, 0x00,
   0x00, 0x00, 0x00, 0x00, 0x00, 0x00, 0x00, 0x00, 0x00, 0x00, 0x00, 0x00,
   0x00, 0x00, 0x00, 0x00, 0x00, 0x00, 0x00, 0x00, 0x00, 0x00, 0x00, 0x00,
   0x00, 0x00, 0x00, 0x00, 0x00, 0x00, 0x00, 0x00, 0x00, 0x00, 0x00, 0x00,
   0x00, 0x00, 0x00, 0x00, 0x00, 0x7f, 0xf0, 0x0f, 0x3c, 0xf8, 0x7c, 0x00,
   0x00, 0xe6, 0x40, 0x18, 0x30, 0x10, 0x20, 0x00, 0x00, 0x06, 0x61, 0x10,
   0x78, 0x30, 0x20, 0x00, 0x00, 0x06, 0x43, 0x10, 0x48, 0x20, 0x33, 0x00,
   0x00, 0x06, 0x42, 0x18, 0xcc, 0x30, 0x13, 0x00, 0x00, 0x06, 0x42, 0x0c,
   0x84, 0x20, 0x17, 0x00, 0x00, 0x06, 0xe2, 0x07, 0x84, 0xa1, 0x15, 0x00,
   0x00, 0x06, 0x42, 0x04, 0xfe, 0xa1, 0x14, 0x00, 0x00, 0x06, 0x43, 0x0c,
   0x02, 0xa3, 0x14, 0x00, 0x00, 0x06, 0x41, 0x08, 0x02, 0x63, 0x18, 0x00,
   0x00, 0x86, 0x61, 0x10, 0x03, 0x42, 0x18, 0x00, 0x00, 0x7f, 0xf0, 0xf0,
   0x8f, 0x47, 0x08, 0x00, 0x00, 0x00, 0x00, 0x00, 0x00, 0x00, 0x00, 0x00,
   0x00, 0x00, 0x00, 0x00, 0x00, 0x00, 0x00, 0x00, 0x00, 0x00, 0x00, 0x00,
   0x00, 0x00, 0x00, 0x00, 0x00, 0x00, 0x00, 0x00, 0x00, 0x00, 0x00, 0x00,
   0x00, 0x00, 0x00, 0x00, 0x00, 0x00, 0x00, 0x00, 0x00, 0x00, 0x00, 0x00,
   0x00, 0x00, 0x00, 0x00, 0x00, 0x00, 0x00, 0x00, 0x00, 0x00, 0x00, 0x00,
   0x00, 0x00, 0x00, 0x00, 0x00, 0x00, 0x00, 0x00, 0x00, 0x00, 0x00, 0x00,
   0x00, 0x00, 0x00, 0x00, 0x00, 0xf8, 0xc1, 0x03, 0x03, 0xf3, 0x1f, 0x00,
   0x00, 0x8c, 0x01, 0x03, 0x86, 0x41, 0x10, 0x00, 0x00, 0x06, 0x81, 0x06,
   0x8e, 0x41, 0x10, 0x00, 0x00, 0x03, 0x81, 0x04, 0xca, 0x41, 0x00, 0x00,
   0x00, 0x01, 0xc0, 0x04, 0x5a, 0x41, 0x04, 0x00, 0x00, 0x01, 0x40, 0x08,
   0x32, 0xc1, 0x07, 0x00, 0x00, 0x01, 0x40, 0x08, 0x32, 0x41, 0x04, 0x00,
   0x00, 0xc3, 0xe3, 0x1f, 0x32, 0x61, 0x04, 0x00, 0x00, 0x03, 0x21, 0x10,
   0x02, 0x41, 0x00, 0x00, 0x00, 0x02, 0x21, 0x30, 0x02, 0x41, 0x10, 0x00,
   0x00, 0x0e, 0x11, 0x20, 0x02, 0x41, 0x10, 0x00, 0x00, 0xf8, 0x79, 0x78,
   0x87, 0xf7, 0x1f, 0x00, 0x00, 0x00, 0x00, 0x00, 0x00, 0x00, 0x00, 0x00,
   0x00, 0x00, 0x00, 0x00, 0x00, 0x00, 0x00, 0x00, 0x00, 0x00, 0x00, 0x00,
   0x00, 0x00, 0x00, 0x00, 0x00, 0x00, 0x00, 0x00, 0x00, 0x00, 0x00, 0x00,
   0x00, 0x00, 0x00, 0x00, 0x00, 0x00, 0x00, 0x00, 0x00, 0x00, 0x00, 0x00,
   0x00, 0x00, 0x00, 0x00, 0x00, 0x00, 0x00, 0x00, 0x00, 0x00, 0x00, 0x00,
   0x00, 0x00, 0x00, 0x00, 0x00, 0x00, 0x00, 0x00, 0x00, 0x00, 0x00, 0x00,
   0x00, 0x00, 0x00, 0x00, 0x00, 0x00, 0x00, 0x00, 0x00, 0x00, 0x00, 0x00,
   0x00, 0x00, 0x00, 0x00, 0x00, 0x00, 0x00, 0x00, 0x00, 0x00, 0x00, 0x00,
   0x00, 0x00, 0x00, 0x00, 0x00, 0x00, 0x00, 0x00, 0x00, 0x00, 0x00, 0x00,
   0x00, 0x00, 0x00, 0x00, 0x00, 0x00, 0x00, 0x00, 0x00, 0x00, 0x00, 0x00,
   0x00, 0x00, 0x00, 0x00, 0x00, 0x00, 0x00, 0x00, 0x00, 0x00, 0x00, 0x00,
   0x00, 0x00, 0x00, 0x00, 0x00, 0x00, 0x00, 0x00 };
