#define draw_width 64
#define draw_height 64
static unsigned char draw_bits[] = {
   0x00, 0x00, 0x00, 0x00, 0x00, 0x00, 0x00, 0x00, 0x00, 0x00, 0x00, 0x00,
   0x00, 0x00, 0x00, 0x00, 0x00, 0x00, 0x00, 0x00, 0x00, 0x00, 0x00, 0x00,
   0x00, 0x00, 0x00, 0x00, 0x00, 0x00, 0x00, 0x00, 0x00, 0x00, 0x00, 0x00,
   0x00, 0x00, 0x00, 0x00, 0x00, 0x00, 0x00, 0x00, 0x00, 0x00, 0x00, 0x00,
   0x00, 0x00, 0x00, 0x00, 0x00, 0x00, 0x00, 0x00, 0x00, 0x00, 0x00, 0x00,
   0x00, 0x00, 0x00, 0x00, 0x00, 0x00, 0x00, 0x00, 0x00, 0x00, 0x00, 0x00,
   0x00, 0x00, 0x00, 0x00, 0x00, 0x00, 0x00, 0x00, 0x00, 0x00, 0x00, 0x00,
   0x00, 0x00, 0x00, 0x00, 0x00, 0x00, 0x00, 0x00, 0x00, 0x00, 0x00, 0x00,
   0x00, 0x00, 0x00, 0x00, 0x00, 0x00, 0x00, 0x00, 0x00, 0x00, 0x00, 0x00,
   0x00, 0x00, 0x00, 0x00, 0x00, 0x57, 0xf0, 0x03, 0x3e, 0x78, 0x38, 0x00,
   0x00, 0x82, 0x40, 0x08, 0x30, 0x10, 0x20, 0x00, 0x00, 0x02, 0x41, 0x18,
   0x68, 0x10, 0x20, 0x00, 0x00, 0x02, 0x41, 0x10, 0x48, 0x20, 0x03, 0x00,
   0x00, 0x02, 0x42, 0x10, 0x48, 0x20, 0x13, 0x00, 0x00, 0x02, 0x02, 0x08,
   0x84, 0x20, 0x12, 0x00, 0x00, 0x02, 0xe2, 0x07, 0x84, 0xa0, 0x14, 0x00,
   0x00, 0x02, 0x42, 0x04, 0xfc, 0xa0, 0x14, 0x00, 0x00, 0x02, 0x41, 0x0c,
   0x02, 0xa1, 0x14, 0x00, 0x00, 0x02, 0x21, 0x08, 0x02, 0x61, 0x18, 0x00,
   0x00, 0x82, 0x40, 0x10, 0x02, 0x42, 0x08, 0x00, 0x00, 0x7f, 0xf0, 0xa0,
   0x87, 0x47, 0x08, 0x00, 0x00, 0x00, 0x00, 0x00, 0x00, 0x00, 0x00, 0x00,
   0x00, 0x00, 0x00, 0x00, 0x00, 0x00, 0x00, 0x00, 0x00, 0x00, 0x00, 0x00,
   0x00, 0x00, 0x00, 0x00, 0x00, 0x00, 0x00, 0x00, 0x00, 0x00, 0x00, 0x00,
   0x00, 0x00, 0x00, 0x00, 0x00, 0x00, 0x00, 0x00, 0x00, 0x00, 0x00, 0x00,
   0x00, 0x00, 0x00, 0x00, 0x00, 0x00, 0x00, 0x00, 0x00, 0x00, 0x00, 0x00,
   0x00, 0x00, 0x00, 0x00, 0x00, 0x00, 0x00, 0x00, 0x00, 0x00, 0x00, 0x00,
   0x00, 0x00, 0x00, 0x00, 0x00, 0x50, 0xe1, 0x03, 0x03, 0xf3, 0x1f, 0x00,
   0x00, 0x84, 0x01, 0x03, 0x86, 0x41, 0x10, 0x00, 0x00, 0x02, 0x81, 0x05,
   0x06, 0x41, 0x10, 0x00, 0x00, 0x01, 0x80, 0x04, 0x4a, 0x41, 0x00, 0x00,
   0x00, 0x01, 0x80, 0x04, 0x4a, 0x41, 0x04, 0x00, 0x00, 0x01, 0x40, 0x08,
   0x02, 0xc1, 0x03, 0x00, 0x00, 0x01, 0x40, 0x08, 0x32, 0x41, 0x04, 0x00,
   0x00, 0xc1, 0xc3, 0x0f, 0x12, 0x41, 0x00, 0x00, 0x00, 0x03, 0x21, 0x10,
   0x02, 0x41, 0x00, 0x00, 0x00, 0x02, 0x21, 0x10, 0x02, 0x41, 0x10, 0x00,
   0x00, 0x04, 0x21, 0x20, 0x02, 0x43, 0x10, 0x00, 0x00, 0xa8, 0x78, 0x78,
   0x87, 0xf3, 0x1f, 0x00, 0x00, 0x00, 0x00, 0x00, 0x00, 0x00, 0x00, 0x00,
   0x00, 0x00, 0x00, 0x00, 0x00, 0x00, 0x00, 0x00, 0x00, 0x00, 0x00, 0x00,
   0x00, 0x00, 0x00, 0x00, 0x00, 0x00, 0x00, 0x00, 0x00, 0x00, 0x00, 0x00,
   0x00, 0x00, 0x00, 0x00, 0x00, 0x00, 0x00, 0x00, 0x00, 0x00, 0x00, 0x00,
   0x00, 0x00, 0x00, 0x00, 0x00, 0x00, 0x00, 0x00, 0x00, 0x00, 0x00, 0x00,
   0x00, 0x00, 0x00, 0x00, 0x00, 0x00, 0x00, 0x00, 0x00, 0x00, 0x00, 0x00,
   0x00, 0x00, 0x00, 0x00, 0x00, 0x00, 0x00, 0x00, 0x00, 0x00, 0x00, 0x00,
   0x00, 0x00, 0x00, 0x00, 0x00, 0x00, 0x00, 0x00, 0x00, 0x00, 0x00, 0x00,
   0x00, 0x00, 0x00, 0x00, 0x00, 0x00, 0x00, 0x00, 0x00, 0x00, 0x00, 0x00,
   0x00, 0x00, 0x00, 0x00, 0x00, 0x00, 0x00, 0x00, 0x00, 0x00, 0x00, 0x00,
   0x00, 0x00, 0x00, 0x00, 0x00, 0x00, 0x00, 0x00, 0x00, 0x00, 0x00, 0x00,
   0x00, 0x00, 0x00, 0x00, 0x00, 0x00, 0x00, 0x00 };
